:version 1.10
:name ASF
:units
  mass 1
  length 1
  angle deg
:documentation
  ASF file generated by Kaydara
:root
  axis xyz
  order  tx ty tz rx ry rz
  position 0 0 0
  orientation 0 0 0
:bonedata
  begin
    id 1
    name LeftUpLegDummy
    direction 1 -2.30186e-007 -8.31532e-007
    length 2.93387
    axis 0 0 0 xyz
  end
  begin
    id 2
    name LeftUpLeg
    direction -1.82929e-007 -1 -1.48925e-009
    length 17.3336
    axis -3.48766 0.00143442 -0.000521554 xyz
    dof rx ry rz
  end
  begin
    id 3
    name LeftLeg
    direction -1.82929e-007 -1 -5.23717e-011
    length 14.9995
    axis 3.68178 -0.00654042 -0.000282425 xyz
    dof rx ry rz
  end
  begin
    id 4
    name LeftFoot
    direction 8.31532e-007 -4.54534e-011 1
    length 6.74421
    axis 1.87234e-006 4.66016e-005 -5.96866e-006 xyz
    dof rx ry rz
  end
  begin
    id 5
    name LeftToes
    direction 0.00818058 -0.00485161 0.999955
    length 3.85048
    axis 1.06247e-005 4.65869e-005 -5.96999e-006 xyz
    dof rx ry rz
  end
  begin
    id 6
    name SpineDummy
    direction -5.8607e-008 0.943407 -0.331637
    length 5.93572
    axis 0 0 0 xyz
  end
  begin
    id 7
    name Spine
    direction -1.04988e-007 0.999988 0.00495137
    length 10.1015
    axis -0.001389 0.000121417 6.61666e-006 xyz
    dof rx ry rz
  end
  begin
    id 8
    name Spine1
    direction 0 0 0
    length 0
    axis -0.001389 0.00012144 6.56766e-006 xyz
    dof rx ry rz
  end
  begin
    id 9
    name RightShoulderDummy
    direction -0.98348 0.17941 -0.0240696
    length 3.59882
    axis -0.001389 0.00012144 6.56766e-006 xyz
  end
  begin
    id 10
    name RightShoulder
    direction -0.978693 0.204882 0.0135597
    length 2.70001
    axis 0.215806 0.000203631 -0.00679732 xyz
    dof rx ry rz
  end
  begin
    id 11
    name RightArm
    direction -1 3.85509e-006 8.31394e-007
    length 10.2459
    axis -23.2009 -0.134239 -0.964098 xyz
    dof rx ry rz
  end
  begin
    id 12
    name RightForeArm
    direction -1 3.85569e-006 8.3129e-007
    length 8.16799
    axis -9.92322 0.0658061 0.17887 xyz
    dof rx ry rz
  end
  begin
    id 13
    name RightHand
    direction -0.992843 -0.0414604 0.112003
    length 5.28593
    axis -0.00960638 0.00330669 -0.185225 xyz
    dof rx ry rz
  end
  begin
    id 14
    name LeftShoulder1Dummy
    direction 0.983523 0.179172 -0.0240748
    length 3.59866
    axis -0.001389 0.00012144 6.56766e-006 xyz
  end
  begin
    id 15
    name LeftShoulder1
    direction 0.978627 0.205195 0.0135605
    length 2.70019
    axis -0.001389 0.00012144 6.57583e-006 xyz
    dof rx ry rz
  end
  begin
    id 16
    name LeftArm
    direction 1 3.51895e-006 -8.60188e-007
    length 10.2459
    axis -23.1894 0.134785 0.967513 xyz
    dof rx ry rz
  end
  begin
    id 17
    name LeftForeArm
    direction 1 3.51921e-006 -7.32029e-007
    length 8.16799
    axis -9.91835 -0.0656957 -0.177789 xyz
    dof rx ry rz
  end
  begin
    id 18
    name LeftHand
    direction 0.992938 -0.0411636 0.11126
    length 5.32135
    axis -0.00960237 -0.00340661 0.185177 xyz
    dof rx ry rz
  end
  begin
    id 19
    name HEadDummy
    direction 1.01974e-006 0.999861 -0.016675
    length 2.99946
    axis -0.001389 0.00012144 6.56766e-006 xyz
  end
  begin
    id 20
    name HEad
    direction -0.0222689 0.980941 0.193023
    length 5.12695
    axis -0.001389 0.00012144 6.56766e-006 xyz
    dof rx ry rz
  end
  begin
    id 21
    name RightUpLegDummy
    direction -1 2.30186e-007 8.31532e-007
    length 2.93387
    axis 0 0 0 xyz
  end
  begin
    id 22
    name RightUpLeg
    direction -1.82966e-007 -1 1.56832e-007
    length 17.3336
    axis -3.4909 -0.000906625 0.00028951 xyz
    dof rx ry rz
  end
  begin
    id 23
    name RightLeg
    direction -1.82786e-007 -1 -1.80317e-007
    length 14.9995
    axis 3.68513 0.0193739 -0.131021 xyz
    dof rx ry rz
  end
  begin
    id 24
    name RightFoot
    direction 8.31721e-007 -4.63324e-011 1
    length 6.74421
    axis 4.81691e-005 -0.120479 -0.188785 xyz
    dof rx ry rz
  end
  begin
    id 25
    name RightToes
    direction 0.00124746 -0.014064 0.9999
    length 3.85082
    axis 0.000481921 0.542163 -0.142575 xyz
    dof rx ry rz
  end
:hierarchy
  begin
    root LeftUpLegDummy SpineDummy RightUpLegDummy
    LeftUpLegDummy LeftUpLeg
    LeftUpLeg LeftLeg
    LeftLeg LeftFoot
    LeftFoot LeftToes
    SpineDummy Spine
    Spine Spine1
    Spine1 RightShoulderDummy LeftShoulder1Dummy HEadDummy
    RightShoulderDummy RightShoulder
    RightShoulder RightArm
    RightArm RightForeArm
    RightForeArm RightHand
    LeftShoulder1Dummy LeftShoulder1
    LeftShoulder1 LeftArm
    LeftArm LeftForeArm
    LeftForeArm LeftHand
    HEadDummy HEad
    RightUpLegDummy RightUpLeg
    RightUpLeg RightLeg
    RightLeg RightFoot
    RightFoot RightToes
  end

:SAMPLES-PER-SECOND 30
:FULLY-SPECIFIED
:DEGREES
135
root  -1.71787 34.2165 21.3972 3.20554 -17.7004 -2.02502
LeftUpLeg  -23.503 11.0138 4.79802
LeftLeg  48.351 1.87312 1.8436
LeftFoot  -1.06387 -0.000416022 -0.044818
LeftToes  -17.3724 1.61378e-006 8.80029e-008
Spine  3.9736 1.30419 1.878
Spine1  7.93539 2.5648 3.65888
RightShoulder  0.0386881 3.65032 7.07222
RightArm  -27.5843 -17.0508 68.5793
RightForeArm  20.8755 36.0125 7.36537
RightHand  0.397334 -5.12682 -8.47659
LeftShoulder1  0.00622898 0.816988 -9.85644
LeftArm  -25.3593 20.1311 -77.3198
LeftForeArm  34.0873 -12.1989 -2.17751
LeftHand  -0.0548879 4.35202 -1.81153
HEad  -0.284986 2.54848 -6.48174
RightUpLeg  -8.44004 -13.7999 2.40341
RightLeg  9.97263 15.5161 1.69449
RightFoot  1.9508 -0.00277197 0.540164
RightToes  -25.8505 -0.116846 -0.222623
136
root  -1.89019 34.2619 21.8784 3.83056 -19.9529 -1.59502
LeftUpLeg  -24.4464 11.3633 3.44732
LeftLeg  38.0286 2.20741 1.50273
LeftFoot  0.39293 -7.73163e-005 0.022539
LeftToes  -17.7346 1.61378e-006 8.80029e-008
Spine  3.94284 1.4794 1.63446
Spine1  7.87531 2.93815 3.20107
RightShoulder  0.0371961 3.89935 6.87889
RightArm  -27.1187 -17.5088 69.4545
RightForeArm  19.253 37.8067 7.86638
RightHand  0.423806 -5.37943 -8.6222
LeftShoulder1  0.00512702 0.956252 -9.5613
LeftArm  -25.6028 20.5105 -77.234
LeftForeArm  32.8437 -13.7869 -2.47251
LeftHand  -0.0491296 4.35349 -1.65981
HEad  -1.01768 3.35009 -6.82031
RightUpLeg  -8.3176 -12.3613 2.04191
RightLeg  9.77026 16.1662 1.7068
RightFoot  1.41401 -0.000398997 0.409676
RightToes  -26.2312 -0.118696 -0.224766
137
root  -2.05403 34.2394 22.376 4.59187 -21.7968 -1.59738
LeftUpLeg  -24.5449 10.3436 3.25963
LeftLeg  25.8456 3.93006 1.59614
LeftFoot  2.31178 -0.00352176 0.174536
LeftToes  -16.9555 1.61378e-006 8.80029e-008
Spine  3.92133 1.54274 1.5021
Spine1  7.83488 3.08231 2.95085
RightShoulder  0.0360409 4.04881 6.788
RightArm  -26.5426 -17.7065 70.2369
RightForeArm  18.7688 38.2993 8.00826
RightHand  0.414792 -5.51534 -8.21557
LeftShoulder1  0.00450269 1.05135 -9.53121
LeftArm  -25.5188 20.0386 -76.5515
LeftForeArm  32.1865 -14.5451 -2.61485
LeftHand  -0.0118445 4.26192 -0.687145
HEad  -1.63252 4.24393 -7.09035
RightUpLeg  -8.31955 -10.4415 2.03407
RightLeg  9.90588 15.8049 1.7069
RightFoot  0.472403 0.000997304 0.135429
RightToes  -26.5676 -0.121013 -0.227416
138
root  -2.23734 34.1775 22.8899 5.59087 -22.8738 -2.02452
LeftUpLeg  -24.6653 8.86876 4.05617
LeftLeg  13.8778 5.48036 0.982474
LeftFoot  5.60467 -0.0267794 0.547647
LeftToes  -16.893 1.61378e-006 8.80029e-008
Spine  3.90216 1.4253 1.52287
Spine1  7.79972 2.85488 2.99344
RightShoulder  0.0353505 4.20078 6.73561
RightArm  -25.9479 -18.0494 70.9233
RightForeArm  19.0757 38.061 7.9394
RightHand  0.399118 -5.5261 -7.87627
LeftShoulder1  0.00428813 1.05682 -9.60322
LeftArm  -24.8668 18.6956 -75.4783
LeftForeArm  32.1961 -14.2762 -2.56441
LeftHand  0.0363552 4.05626 0.655536
HEad  -2.20509 5.0477 -7.50215
RightUpLeg  -8.36099 -9.022 2.41083
RightLeg  10.1421 15.1691 1.70228
RightFoot  -0.666649 -0.00322461 -0.176913
RightToes  -27.1389 -0.124724 -0.231597
139
root  -2.44241 34.0745 23.4468 7.24355 -23.106 -3.76292
LeftUpLeg  -25.2287 8.57572 5.946
LeftLeg  3.73861 6.91115 0.00641112
LeftFoot  5.83738 -0.0358775 0.703671
LeftToes  -18.963 1.61378e-006 8.80029e-008
Spine  3.79431 1.1678 1.97664
Spine1  7.59544 2.31006 3.89517
RightShoulder  0.0331095 4.36553 6.91601
RightArm  -25.4437 -18.9059 71.0047
RightForeArm  19.3279 37.2288 7.70226
RightHand  0.371912 -5.37137 -7.53672
LeftShoulder1  0.00441548 1.06957 -9.82032
LeftArm  -24.1358 17.274 -74.386
LeftForeArm  32.5886 -14.6342 -2.6313
LeftHand  0.0776168 3.92934 1.88908
HEad  -2.38222 5.84739 -8.04805
RightUpLeg  -8.16818 -8.00337 3.97565
RightLeg  9.85493 14.2749 1.53235
RightFoot  -1.55666 -0.0104512 -0.391921
RightToes  -27.7199 -0.126748 -0.233856
140
root  -2.67466 33.9772 24.0572 8.71607 -22.9999 -5.28248
LeftUpLeg  -29.0044 12.7568 5.64351
LeftLeg  2.14319 8.13313 -0.217966
LeftFoot  4.20393 -0.0219067 0.596854
LeftToes  -20.023 1.61378e-006 8.80029e-008
Spine  3.69071 0.94563 2.39601
Spine1  7.39189 1.78614 4.6384
RightShoulder  0.0302517 4.43989 7.19133
RightArm  -25.7779 -20.2493 71.2864
RightForeArm  19.4043 35.8657 7.32514
RightHand  0.357099 -5.31869 -7.29772
LeftShoulder1  0.00481687 1.19393 -9.92256
LeftArm  -23.71 15.5801 -73.198
LeftForeArm  33.0071 -15.1261 -2.72366
LeftHand  0.102614 3.76764 2.74407
HEad  -2.47275 6.62866 -8.84399
RightUpLeg  -7.65309 -6.68989 5.34482
RightLeg  9.32454 12.8004 1.258
RightFoot  -2.47521 -0.0201574 -0.555647
RightToes  -27.6191 -0.128135 -0.23538
141
root  -2.87242 33.8931 24.6899 9.55996 -22.7523 -6.1782
LeftUpLeg  -31.5184 17.1713 4.02299
LeftLeg  1.72237 12.0239 -0.408533
LeftFoot  4.93304 -0.0452568 1.0506
LeftToes  -18.9975 1.61378e-006 8.80029e-008
Spine  3.71736 0.794948 2.48384
Spine1  7.44372 1.48087 4.90091
RightShoulder  0.0268973 4.43262 7.36196
RightArm  -26.9128 -21.8922 72.065
RightForeArm  19.2513 33.8681 6.79595
RightHand  0.344294 -5.29148 -7.0615
LeftShoulder1  0.00542445 1.40796 -10.0014
LeftArm  -23.6559 13.7215 -71.846
LeftForeArm  33.3787 -16.6109 -3.00591
LeftHand  0.107053 3.72778 2.91335
HEad  -2.94053 7.42397 -9.88833
RightUpLeg  -6.85324 -5.90596 6.02316
RightLeg  9.04488 11.7293 1.09681
RightFoot  -3.52465 -0.0338794 -0.723683
RightToes  -27.9579 -0.130115 -0.237525
142
root  -3.05753 33.8264 25.3979 10.0088 -22.3932 -6.44809
LeftUpLeg  -32.4307 19.5717 2.73369
LeftLeg  1.47443 16.2156 -0.616856
LeftFoot  7.79686 -0.154619 2.26864
LeftToes  -14.2885 1.61378e-006 8.80029e-008
Spine  3.77142 0.720254 2.31435
Spine1  7.54549 1.3364 4.65503
RightShoulder  0.023171 4.54478 7.37059
RightArm  -28.2685 -24.0748 73.2471
RightForeArm  18.9425 31.5196 6.20559
RightHand  0.354973 -5.50537 -6.99442
LeftShoulder1  0.00617035 1.60821 -10.2566
LeftArm  -23.6015 12.0151 -70.246
LeftForeArm  32.8597 -18.6469 -3.40134
LeftHand  0.114155 3.51892 3.33837
HEad  -3.8045 8.05164 -11.0283
RightUpLeg  -6.10941 -5.85092 6.06533
RightLeg  9.48382 11.1716 1.13111
RightFoot  -4.88179 -0.0567058 -0.952795
RightToes  -28.4944 -0.133692 -0.241366
143
root  -3.24762 33.7421 26.2715 10.3214 -22.2878 -6.66302
LeftUpLeg  -33.5926 22.5284 1.21731
LeftLeg  4.05763 18.6262 0.119594
LeftFoot  7.43916 -0.163194 2.50988
LeftToes  -13.36 1.61378e-006 8.80029e-008
Spine  3.74609 0.852084 2.0376
Spine1  7.49283 1.59099 4.16627
RightShoulder  0.0186365 5.01155 7.42826
RightArm  -29.1554 -27.2752 74.278
RightForeArm  17.6785 29.2456 5.66233
RightHand  0.386194 -6.35251 -6.57405
LeftShoulder1  0.00698671 2.02292 -10.7354
LeftArm  -22.3812 11.0849 -68.4671
LeftForeArm  30.6047 -21.8907 -4.05356
LeftHand  0.124588 2.98629 4.39674
HEad  -4.30941 8.61785 -11.9606
RightUpLeg  -4.93471 -4.91568 5.94152
RightLeg  9.80115 9.9897 1.06828
RightFoot  -6.25419 -0.0799089 -1.08516
RightToes  -28.7738 -0.136103 -0.243926
144
root  -3.42227 33.6383 27.2783 10.5138 -21.8446 -6.69718
LeftUpLeg  -33.6626 25.0265 -0.240078
LeftLeg  6.01612 18.7778 0.751132
LeftFoot  6.48948 -0.125537 2.21409
LeftToes  -12.7152 1.61378e-006 8.80029e-008
Spine  3.62699 0.980618 1.69137
Spine1  7.25115 1.84931 3.52887
RightShoulder  0.0149505 5.68125 7.5775
RightArm  -29.3308 -31.1208 75.0949
RightForeArm  16.9361 26.932 5.13477
RightHand  0.359723 -6.93934 -5.55246
LeftShoulder1  0.00780567 2.63503 -11.3081
LeftArm  -20.9946 10.6827 -66.8798
LeftForeArm  28.2642 -25.5832 -4.83434
LeftHand  0.116555 2.24895 5.54571
HEad  -4.69225 9.14228 -12.8927
RightUpLeg  -3.7905 -3.51149 5.63581
RightLeg  10.6967 8.05595 0.990082
RightFoot  -7.86081 -0.100869 -1.09058
RightToes  -29.0938 -0.138145 -0.246064
